<svg id="Layer_1" data-name="Layer 1" xmlns="http://www.w3.org/2000/svg" viewBox="0 0 345.6 46.8"><defs><style>.cls-1{fill:#00b1c5;}.cls-2{fill:#fff;}.cls-3{fill:#231f20;}</style></defs><title>linuxconfau</title><rect class="cls-1" width="345.6" height="46.8"/><path class="cls-2" d="M13.08,8.24h2.24V37H33.06v2h-20Z"/><path class="cls-2" d="M38.82,8.24h2.25V39.05H38.82Z"/><path class="cls-2" d="M76.9,8.24V39.05H75.05l-21-26.76V39.05H51.81V8.24H53.7L74.65,35V8.24Z"/><path class="cls-2" d="M90.61,35.88q-3.24-3.39-3.24-9.9V8.24h2.25V25.89c0,3.78.86,6.62,2.59,8.49s4.24,2.82,7.53,2.82,5.75-.94,7.48-2.82,2.6-4.71,2.6-8.49V8.24h2.25V26q0,6.51-3.26,9.9T99.7,39.27C95.79,39.27,92.77,38.14,90.61,35.88Z"/><path class="cls-2" d="M141.42,39.05l-10.6-14.26L120.25,39.05h-2.64l11.84-15.89-11-14.92h2.64l9.81,13.25,9.82-13.25h2.51l-11,14.88,11.84,15.93Z"/><path class="cls-3" d="M154.12,37.25a15,15,0,0,1-5.72-5.59,15.6,15.6,0,0,1-2.09-8,15.59,15.59,0,0,1,2.09-8A15,15,0,0,1,154.12,10a16.47,16.47,0,0,1,8.17-2,17.07,17.07,0,0,1,6.16,1.08,12.68,12.68,0,0,1,4.8,3.19l-1.41,1.45a12.92,12.92,0,0,0-9.46-3.65,14.32,14.32,0,0,0-7,1.76,12.83,12.83,0,0,0-5,4.86,13.57,13.57,0,0,0-1.81,6.93,13.58,13.58,0,0,0,1.81,6.94,12.83,12.83,0,0,0,5,4.86,14.32,14.32,0,0,0,7,1.76,12.9,12.9,0,0,0,9.46-3.7L173.25,35a13,13,0,0,1-4.82,3.21,17,17,0,0,1-6.14,1.1A16.47,16.47,0,0,1,154.12,37.25Z"/><path class="cls-3" d="M242.08,8.24V39.05h-1.84l-21-26.76V39.05H217V8.24h1.89l21,26.76V8.24Z"/><path class="cls-3" d="M255.07,10.26V23.42h16.42v2H255.07v13.6h-2.24V8.24h20.59v2Z"/><path class="cls-2" d="M298.16,30.38H280.29l-3.92,8.67H274L288.12,8.24h2.25l14.17,30.81h-2.42Zm-.84-1.89-8.1-17.79-8.05,17.79Z"/><path class="cls-2" d="M312.44,35.88q-3.22-3.39-3.23-9.9V8.24h2.24V25.89c0,3.78.87,6.62,2.6,8.49s4.24,2.82,7.53,2.82,5.75-.94,7.48-2.82,2.6-4.71,2.6-8.49V8.24h2.24V26q0,6.51-3.26,9.9t-9.11,3.39Q315.68,39.27,312.44,35.88Z"/><path class="cls-3" d="M197.94,8.24a15.06,15.06,0,0,0-8,.11,15.82,15.82,0,0,0-4.41,2.06L187,11.92a13.58,13.58,0,0,1,3.34-1.45,13,13,0,0,1,6.92-.05,14.24,14.24,0,0,1,9.81,9.81,12.9,12.9,0,0,1-.05,6.92,14,14,0,0,1-3.7,6.2,14.18,14.18,0,0,1-6.21,3.71,12.88,12.88,0,0,1-6.94.07,14.21,14.21,0,0,1-9.8-9.81,12.78,12.78,0,0,1,.06-6.94A13,13,0,0,1,181.92,17l-1.51-1.51a15.78,15.78,0,0,0-2,4.43,15,15,0,0,0-.09,8,15.49,15.49,0,0,0,4.15,7.11,15.48,15.48,0,0,0,7.12,4.15,15,15,0,0,0,8-.09,16.58,16.58,0,0,0,7.23-4.34,16.65,16.65,0,0,0,4.36-7.22,15,15,0,0,0,.11-8,15.6,15.6,0,0,0-4.19-7.14A15.63,15.63,0,0,0,197.94,8.24Z"/></svg>